<svg xmlns="http://www.w3.org/2000/svg" viewBox="0 0 512 512">
  <defs>
    <linearGradient id="bg" x1="0%" y1="0%" x2="100%" y2="100%">
      <stop offset="0%" stop-color="#dff6f8" />
      <stop offset="100%" stop-color="#f8e9d5" />
    </linearGradient>
    <linearGradient id="fish" x1="0%" y1="0%" x2="100%" y2="100%">
      <stop offset="0%" stop-color="#0d7c86" />
      <stop offset="100%" stop-color="#0a5a60" />
    </linearGradient>
  </defs>
  <rect width="512" height="512" rx="124" fill="url(#bg)" />
  <circle cx="396" cy="124" r="34" fill="#7dd3fc" opacity="0.8" />
  <circle cx="344" cy="190" r="18" fill="#bae6fd" opacity="0.9" />
  <path d="M130 264c0-78 70-132 150-132 68 0 120 32 145 83l44-40v178l-44-40c-25 51-77 83-145 83-80 0-150-54-150-132z" fill="url(#fish)" />
  <path d="M138 264l-66-54v108z" fill="#0a5a60" />
  <circle cx="316" cy="238" r="22" fill="#f8fafc" />
  <circle cx="324" cy="238" r="10" fill="#173042" />
  <path d="M176 236c24-24 58-38 92-38" stroke="#8dd6dd" stroke-width="18" stroke-linecap="round" opacity="0.35" />
</svg>
